<?xml version="1.0" encoding="utf-8"?>
<!-- Generator: Adobe Illustrator 27.1.1, SVG Export Plug-In . SVG Version: 6.00 Build 0)  -->
<svg version="1.1" id="Capa_1" xmlns="http://www.w3.org/2000/svg" xmlns:xlink="http://www.w3.org/1999/xlink" x="0px" y="0px"
	 viewBox="0 0 1080 244.41" style="enable-background:new 0 0 1080 244.41;" xml:space="preserve">
<style type="text/css">
	.st0{fill:#575756;}
	.st1{font-family:'Montserrat-Bold';}
	.st2{font-size:120.3467px;}
	.st3{fill:#8DA5B5;}
	.st4{fill:#EE7180;}
	.st5{font-family:'SofiaProMedium';}
	.st6{font-size:58.404px;}
	.st7{letter-spacing:11.81;}
</style>
<g>
	<g>
		<text transform="matrix(1 0 0 1 27.8378 115.2455)"><tspan x="0" y="0" class="st0 st1 st2">animal</tspan><tspan x="508.7" y="0" class="st3 st1 st2"> </tspan><tspan x="542.76" y="0" class="st4 st1 st2">scan</tspan></text>
	</g>
	<g>
		<text transform="matrix(1.0165 0 0 1 20.871 176.6479)" class="st0 st5 st6 st7">Berardi Marina Group</text>
	</g>
	<g>
		<g>
			<path class="st0" d="M932.51,112.19c0.03-0.01,0.07-0.02,0.11-0.04c1.6-9.33,5.56-15.94,11.92-17.92
				c3.73-1.16,8.11-0.64,13.01,1.54c5.93,2.64,12.05,7.5,17.89,13.86c-10.52,0.96-21.74,3.15-33.06,6.67
				c-3.66,1.14-7.15,2.4-10.56,3.71c0-0.01,0-0.02,0-0.04c-0.01,0-0.03,0.01-0.04,0.01c-2.57,0.95-5.1,2-7.49,3.1
				c0,0.01,0,0.03,0,0.04c-30.25,13.49-47.91,33.3-41.52,48.9c2.12,5.17,6.77,9.47,13.45,12.45c11.86,5.28,29.4,6.32,48.67,3.41
				c9.83,15.88,21.82,27.99,33.68,33.27c6.68,2.98,13.17,3.63,18.75,1.9c3.55-1.1,6.56-3.14,9.05-5.9
				c5.61,1.11,11.4-1.28,13.85-6.14c2.76-5.5,0.21-12.11-5.65-15.16c1.03-9.78-0.12-21.48-3.45-34.05
				c15.06-11.42,22.35-24.36,17.89-35.25c-2.12-5.17-6.77-9.47-13.45-12.45c0,0,0,0,0,0c-5.98-2.66-13.43-4.23-21.79-4.78
				c0.92,1.2,1.85,2.37,2.74,3.65c0.87,1.22,1.68,2.52,2.51,3.81c5.09,0.68,9.69,1.79,13.46,3.47c0,0,0,0,0,0
				c4.89,2.18,8.1,5.04,9.51,8.49c2.84,6.94-1.7,15.55-11.1,23.86l0,0c-0.66,0.58-1.25,1.17-1.96,1.75
				c-1.91,1.63-4.02,3.17-6.3,4.71c-0.61,0.41-1.34,0.79-1.97,1.2l-0.01-0.02c-9.27,5.99-20.81,11.47-33.9,15.54
				c-3.52,1.09-7.03,2.01-10.53,2.83c0.64,1.08,1.25,2.2,1.92,3.24c0.64,1.04,1.32,1.98,1.98,2.97c3.08-0.75,6.18-1.58,9.29-2.54
				c13.61-4.23,25.54-9.77,35.19-15.94c2.43,10.31,3.26,19.92,2.56,27.97c-4.3,0.31-8.25,2.58-10.15,6.37
				c-2.22,4.42-1,9.57,2.59,13.01c-1.45,1.31-3.09,2.3-4.95,2.87c-3.73,1.16-8.11,0.64-13-1.54c-7.59-3.38-15.46-10.33-22.68-19.53
				l-0.06,0.01c-2.88-3.61-5.71-7.66-8.29-12.04c-0.65-1.05-1.24-2.16-1.86-3.24c-0.01,0-0.02,0-0.03,0.01
				c-0.07-0.13-0.13-0.27-0.2-0.4c-1.5-2.68-2.95-5.43-4.33-8.31l0.13-0.05c-0.48-1.02-1.04-1.96-1.51-3
				c1.82-1.16,3.36-2.71,4.35-4.69c3.09-6.16,0.02-13.66-6.85-16.72c-1.77-0.79-3.63-1.19-5.46-1.27
				c-1.59-6.42-2.54-12.57-2.92-18.28c4.16-1.71,8.53-3.29,13.07-4.71c12.33-3.83,24.67-6.02,35.88-6.64
				c6.6,8.55,12.64,18.93,17.31,30.33c0.75,1.84,1.28,3.65,1.94,5.48c0.03-0.02,0.06-0.04,0.09-0.06c1.59-1.17,3.12-2.37,4.54-3.54
				c0.53-0.41,0.99-0.86,1.46-1.3c-0.35-0.93-0.63-1.84-1.01-2.77c-3.95-9.64-8.8-18.46-14.13-26.25l-0.03,0
				c-1.28-1.86-2.54-3.74-3.86-5.46c-1-1.33-2.02-2.56-3.04-3.79c-7.45-8.86-15.53-15.59-23.56-19.16
				c-6.68-2.98-13.17-3.63-18.75-1.89c-9.97,3.1-15.75,13.33-17.18,27.45C927.21,114.15,929.86,113.17,932.51,112.19z
				 M927.64,147.35c-2.28,1.18-4.18,2.99-5.36,5.33c-3.09,6.16-0.02,13.66,6.85,16.72c2.17,0.97,4.46,1.32,6.68,1.23
				c1.66,3.73,3.44,7.33,5.33,10.8c-16.77,2.25-31.94,1.32-41.84-3.09c-4.89-2.18-8.09-5.04-9.51-8.49
				c-4.69-11.44,10.45-27.43,34.91-39.1C925.21,136.02,926.19,141.58,927.64,147.35z"/>
			<g>
				<g>
					
						<ellipse transform="matrix(0.2483 -0.9687 0.9687 0.2483 681.8063 998.0252)" class="st0" cx="983.97" cy="59.7" rx="30.07" ry="17.95"/>
					
						<ellipse transform="matrix(0.0371 -0.9993 0.9993 0.0371 832.7153 1015.5574)" class="st0" cx="943.34" cy="75.68" rx="22.84" ry="17.93"/>
					
						<ellipse transform="matrix(0.754 -0.6569 0.6569 0.754 183.1525 708.864)" class="st0" cx="1038" cy="109.9" rx="23.58" ry="17.37"/>
					
						<ellipse transform="matrix(0.5743 -0.8187 0.8187 0.5743 374.6526 867.1847)" class="st0" cx="1021.1" cy="73.37" rx="30.54" ry="17.68"/>
				</g>
			</g>
		</g>
		
			<ellipse transform="matrix(0.174 -0.9847 0.9847 0.174 616.1707 1050.9905)" class="st4" cx="934.59" cy="158.19" rx="12.4" ry="13.97"/>
		
			<ellipse transform="matrix(0.174 -0.9847 0.9847 0.174 630.0676 1162.1366)" class="st4" cx="1007.79" cy="205.48" rx="12.4" ry="13.71"/>
	</g>
</g>
</svg>
